<svg height="30" xmlns="http://www.w3.org/2000/svg" viewBox="0 0 228.002 228.002"><title>linkedin</title><path class="svg__group" d="M206.002,6.001H21.9453A15.76651,15.76651,0,0,0,6.001,21.5635V206.4151A15.77607,15.77607,0,0,0,21.9453,222.001H206.002a15.81817,15.81817,0,0,0,15.999-15.5859V21.5635A15.80867,15.80867,0,0,0,206.002,6.001Z"/><!--<path class="" d="M38.0107,86.9854H70.0615V190.0635H38.0107ZM54.0381,35.7393A18.57615,18.57615,0,1,1,35.4678,54.3096,18.58228,18.58228,0,0,1,54.0381,35.7393"/><path class="cls-2" d="M90.1553,86.9854h30.7343v14.0781h.4375c4.2774-8.1015,14.7305-16.6484,30.3165-16.6484,32.4179,0,38.4062,21.3437,38.4062,49.1094v56.539h-32v-50.125c0-11.9609-.2344-27.3359-16.6523-27.3359-16.6719,0-19.2149,13.0234-19.2149,26.4687v50.9922H90.1553Z"/>--></svg>