<svg version="1.1" id="Layer_1" xmlns="http://www.w3.org/2000/svg" xmlns:xlink="http://www.w3.org/1999/xlink" width="30px" height="30px" x="0px" y="0px"
	 viewBox="0 0 26.2 31.3" style="enable-background:new 0 0 26.2 31.3;" xml:space="preserve"><g><path class="svg__fill" d="M21.6,27.5v-8h3v11h-24v-11h3v8"/><path class="svg__fill" d="M6,19.6l13.6,2l0.2-2.4L6.5,16.7C6.5,16.7,6,19.6,6,19.6z M7.8,12.8l12,5.6l1.1-2.4l-12-5.6L7.8,12.8 L7.8,12.8z M11.2,6.9l10.2,8.5l1.7-2L12.9,4.9L11.2,6.9L11.2,6.9z M17.7,0.7l-2.1,1.6l7.9,10.6l2.1-1.6L17.7,0.7L17.7,0.7z M5.6,25.5h14v-3h-14V25.5z"/></g></svg>
