<svg height="30" xmlns="http://www.w3.org/2000/svg" viewBox="0 0 224 182.04043"><title>twitter</title><path class="svg__group" d="M212,28.99237a82.02242,82.02242,0,0,1-23.56641,6.461,41.15656,41.15656,0,0,0,18.041-22.7012,82.14318,82.14318,0,0,1-26.05659,9.957,41.0707,41.0707,0,0,0-69.9204,37.4253,116.48986,116.48986,0,0,1-84.5738-42.872,41.07682,41.07682,0,0,0,12.6983,54.7817,40.87058,40.87058,0,0,1-18.585-5.1323c-.0039.1714-.0039.3427-.0039.5161a41.05864,41.05864,0,0,0,32.9146,40.2344,41.116,41.116,0,0,1-18.5303.7031,41.07281,41.07281,0,0,0,38.3305,28.4951A82.32407,82.32407,0,0,1,21.7881,154.426,83.25648,83.25648,0,0,1,12,153.85177a116.13794,116.13794,0,0,0,62.8989,18.4365c75.4732,0,116.74559-62.5244,116.74559-116.747q0-2.6682-.1191-5.3086A83.37074,83.37074,0,0,0,212,28.99237Z"/></svg>