<svg width="30" height="30" xmlns="http://www.w3.org/2000/svg" viewBox="0 0 500 500"><title>codepen</title><g class="svg__group"><polygon points="129.95 226.67 129.95 268.74 161.4 247.7 129.95 226.67"/><polygon points="238.5 196.13 238.5 137.5 140.01 203.16 184.01 232.59 238.5 196.13"/><polygon points="362.13 203.16 263.64 137.5 263.64 196.13 318.14 232.59 362.13 203.16"/><polygon points="140.01 292.25 238.5 357.9 238.5 299.28 184.01 262.83 140.01 292.25"/><polygon points="263.64 299.28 263.64 357.9 362.13 292.25 318.14 262.83 263.64 299.28"/><polygon points="251.07 217.97 206.62 247.7 251.07 277.44 295.53 247.7 251.07 217.97"/><path d="M251.07,11.15C120.43,11.15,14.53,117.06,14.53,247.7s105.9,236.55,236.54,236.55S487.62,378.35,487.62,247.7,381.72,11.15,251.07,11.15ZM397.33,292.27a12.78,12.78,0,0,1-.11,1.64c0,.18-.07.37-.1.54-.07.36-.13.71-.22,1.06s-.13.4-.2.6-.2.62-.32.93-.19.41-.28.61-.27.56-.43.83-.24.39-.36.58a8,8,0,0,1-.53.76,5.79,5.79,0,0,1-.43.55c-.2.23-.4.46-.62.68l-.5.49q-.35.31-.72.6c-.18.15-.37.29-.57.43a1.59,1.59,0,0,1-.21.15L258.05,391.85a12.53,12.53,0,0,1-14,0L110.41,302.72l-.21-.15c-.19-.14-.38-.28-.56-.43s-.49-.39-.72-.6l-.5-.49c-.22-.22-.42-.45-.63-.68s-.29-.35-.43-.55-.36-.5-.53-.76l-.36-.58c-.15-.27-.29-.55-.42-.83s-.2-.4-.28-.61-.23-.62-.33-.93-.14-.4-.19-.6a9.49,9.49,0,0,1-.22-1.06c0-.17-.08-.36-.1-.54a11.21,11.21,0,0,1-.12-1.64V203.14a11.21,11.21,0,0,1,.12-1.64c0-.18.07-.36.1-.55a9.81,9.81,0,0,1,.22-1,6.17,6.17,0,0,1,.19-.61c.1-.31.2-.61.33-.91s.18-.42.28-.62.27-.56.42-.83l.36-.58c.17-.27.35-.52.53-.77l.43-.54c.21-.23.41-.46.63-.68s.33-.34.5-.49.47-.41.72-.6.37-.29.56-.43l.21-.16L244.1,103.56a12.56,12.56,0,0,1,14,0l133.68,89.12c.08,0,.14.11.21.16s.39.28.57.43.49.39.72.6.33.32.5.49.42.45.62.68.3.36.43.54a8.09,8.09,0,0,1,.53.77c.12.19.25.38.36.58s.29.55.43.83.2.41.28.62.22.6.32.91a6.21,6.21,0,0,1,.2.61c.09.35.15.7.22,1,0,.19.07.37.1.55a12.78,12.78,0,0,1,.11,1.64Z"/><polygon points="372.19 268.74 372.19 226.67 340.75 247.7 372.19 268.74"/></g></svg>